<?xml version="1.0" encoding="UTF-8"?>
<!DOCTYPE svg PUBLIC "-//W3C//DTD SVG 1.1//EN" "http://www.w3.org/Graphics/SVG/1.1/DTD/svg11.dtd">
<svg xmlns="http://www.w3.org/2000/svg" version="1.1" width="596px" height="596px" style="shape-rendering:geometricPrecision; text-rendering:geometricPrecision; image-rendering:optimizeQuality; fill-rule:evenodd; clip-rule:evenodd" xmlns:xlink="http://www.w3.org/1999/xlink">
<g><path style="opacity:0.977" fill="#129873" d="M 225.5,-0.5 C 230.833,-0.5 236.167,-0.5 241.5,-0.5C 269.342,4.84231 285.509,21.509 290,49.5C 290.833,89.1709 290.667,128.838 289.5,168.5C 272.094,169.976 255.594,174.643 240,182.5C 220.699,149.187 201.366,115.853 182,82.5C 169.131,52.1506 175.965,27.3173 202.5,8C 209.88,4.04395 217.547,1.21062 225.5,-0.5 Z"/></g>
<g><path style="opacity:0.979" fill="#129873" d="M 353.5,-0.5 C 359.167,-0.5 364.833,-0.5 370.5,-0.5C 404.031,7.54318 420.531,28.8765 420,63.5C 418.649,70.5545 416.316,77.2212 413,83.5C 393.833,116.5 374.667,149.5 355.5,182.5C 340.013,174.878 323.679,170.211 306.5,168.5C 305.333,127.837 305.167,87.1708 306,46.5C 309.325,26.5182 320.158,12.3515 338.5,4C 343.593,2.42534 348.593,0.92534 353.5,-0.5 Z"/></g>
<g><path style="opacity:1" fill="#fbfdfc" d="M 229.5,42.5 C 243.841,42.6659 249.341,49.6659 246,63.5C 236.967,74.3323 228.3,73.999 220,62.5C 217.574,53.0231 220.74,46.3565 229.5,42.5 Z"/></g>
<g><path style="opacity:1" fill="#fbfdfc" d="M 358.5,42.5 C 368.933,41.6097 374.933,46.2764 376.5,56.5C 375.947,65.5541 371.114,70.5541 362,71.5C 350.813,69.3094 346.479,62.6427 349,51.5C 350.832,47.0158 353.999,44.0158 358.5,42.5 Z"/></g>
<g><path style="opacity:0.977" fill="#129873" d="M 116.5,63.5 C 136.111,62.0621 152.277,68.7288 165,83.5C 185.739,118.637 206.239,153.971 226.5,189.5C 212.173,199.66 200.006,211.994 190,226.5C 156.646,207.235 123.146,188.068 89.5,169C 67.288,153.406 59.4547,132.239 66,105.5C 74.5187,81.199 91.352,67.199 116.5,63.5 Z"/></g>
<g><path style="opacity:0.977" fill="#129873" d="M 466.5,63.5 C 488.78,62.3948 506.947,70.3948 521,87.5C 532.584,106.145 534.584,125.812 527,146.5C 521.219,156.947 513.053,165.114 502.5,171C 470.199,189.486 437.865,207.986 405.5,226.5C 395.527,211.861 383.194,199.527 368.5,189.5C 388.899,154.943 409.065,120.276 429,85.5C 438.716,73.2565 451.216,65.9231 466.5,63.5 Z"/></g>
<g><path style="opacity:1" fill="#fbfdfc" d="M 116.5,107.5 C 130.652,106.151 136.819,112.485 135,126.5C 129.041,136.129 121.208,137.962 111.5,132C 104.881,121.983 106.548,113.816 116.5,107.5 Z"/></g>
<g><path style="opacity:1" fill="#fbfdfc" d="M 469.5,107.5 C 485.17,107.327 490.67,114.66 486,129.5C 480.096,135.972 473.262,137.139 465.5,133C 456.73,122.888 458.063,114.388 469.5,107.5 Z"/></g>
<g><path style="opacity:0.982" fill="#129873" d="M -0.5,241.5 C -0.5,236.167 -0.5,230.833 -0.5,225.5C 8.69991,188.131 32.3666,171.964 70.5,177C 76.6667,179.278 82.6667,181.945 88.5,185C 119.745,203.767 151.079,222.267 182.5,240.5C 174.795,255.616 170.128,271.616 168.5,288.5C 126.837,289.667 85.1707,289.833 43.5,289C 25.6546,285.161 12.8212,274.994 5,258.5C 2.6825,252.863 0.849164,247.197 -0.5,241.5 Z"/></g>
<g><path style="opacity:0.983" fill="#129873" d="M 595.5,221.5 C 595.5,229.167 595.5,236.833 595.5,244.5C 590.993,264.512 579.326,278.678 560.5,287C 557.529,287.794 554.529,288.461 551.5,289C 509.835,289.5 468.168,289.667 426.5,289.5C 426.103,283.118 425.27,276.785 424,270.5C 420.888,259.979 417.554,249.646 414,239.5C 448.909,218.934 484.076,198.767 519.5,179C 545.139,170.769 566.639,176.936 584,197.5C 589.218,204.932 593.051,212.932 595.5,221.5 Z"/></g>
<g><path style="opacity:0.941" fill="#129872" d="M 285.5,180.5 C 336.239,178.115 374.739,198.448 401,241.5C 419.583,280.445 418.917,319.112 399,357.5C 372.209,398.811 334.042,417.644 284.5,414C 238.395,407.229 206.228,382.396 188,339.5C 171.697,289.093 182.53,245.593 220.5,209C 239.467,193.398 261.134,183.898 285.5,180.5 Z M 288.5,202.5 C 330.858,201.089 362.358,218.756 383,255.5C 400.796,297.368 393.962,334.534 362.5,367C 331.442,393.673 296.776,399.34 258.5,384C 223.367,365.917 204.701,337.084 202.5,297.5C 207.404,244.265 236.07,212.599 288.5,202.5 Z"/></g>
<g><path style="opacity:0.984" fill="#f7951f" d="M 284.5,217.5 C 327.444,213.539 357.277,231.205 374,270.5C 385.174,310.949 373.674,343.116 339.5,367C 305.492,384.332 273.492,381.332 243.5,358C 217.682,331.883 210.848,301.383 223,266.5C 235.166,239.524 255.666,223.19 284.5,217.5 Z"/></g>
<g><path style="opacity:1" fill="#fafdfc" d="M 53.5,218.5 C 65.1925,218.361 71.0258,224.027 71,235.5C 67.8105,246.009 60.9771,249.509 50.5,246C 39.1005,235.551 40.1005,226.384 53.5,218.5 Z"/></g>
<g><path style="opacity:1" fill="#fbfdfc" d="M 535.5,218.5 C 550.476,219.788 555.31,227.454 550,241.5C 540.522,250.242 532.188,249.242 525,238.5C 522.991,228.848 526.491,222.182 535.5,218.5 Z"/></g>
<g><path style="opacity:0.98" fill="#129873" d="M -0.5,370.5 C -0.5,364.833 -0.5,359.167 -0.5,353.5C 2.97184,335.18 12.6385,321.014 28.5,311C 32.3921,309.36 36.3921,308.027 40.5,307C 83.1367,305.539 125.803,305.039 168.5,305.5C 170.045,322.957 174.711,339.457 182.5,355C 146.826,376.172 110.826,396.839 74.5,417C 41.3786,424.902 17.5453,413.402 3,382.5C 2.00886,378.325 0.842194,374.325 -0.5,370.5 Z"/></g>
<g><path style="opacity:0.981" fill="#129873" d="M 595.5,350.5 C 595.5,358.167 595.5,365.833 595.5,373.5C 587.557,401.765 568.89,417.432 539.5,420.5C 531.419,420.37 523.753,418.537 516.5,415C 481.956,395.812 447.789,375.978 414,355.5C 416.829,348.019 419.495,340.353 422,332.5C 424.366,323.637 425.866,314.637 426.5,305.5C 469.53,305.038 512.53,305.538 555.5,307C 577.035,314.032 590.368,328.532 595.5,350.5 Z"/></g>
<g><path style="opacity:1" fill="#fafdfc" d="M 53.5,347.5 C 69.4934,348.963 74.3267,356.963 68,371.5C 60.6463,378.061 53.313,378.061 46,371.5C 40.1783,360.826 42.6783,352.826 53.5,347.5 Z"/></g>
<g><path style="opacity:1" fill="#fbfdfc" d="M 535.5,347.5 C 550.476,348.788 555.31,356.454 550,370.5C 540.522,379.242 532.188,378.242 525,367.5C 522.991,357.848 526.491,351.182 535.5,347.5 Z"/></g>
<g><path style="opacity:0.976" fill="#129873" d="M 189.5,368.5 C 199.812,382.812 212.146,395.146 226.5,405.5C 207.964,438.569 189.131,471.569 170,504.5C 155.322,527.405 134.488,535.905 107.5,530C 82.6299,522.128 68.1299,505.295 64,479.5C 61.8207,457.032 69.9873,439.532 88.5,427C 122.262,407.46 155.928,387.96 189.5,368.5 Z"/></g>
<g><path style="opacity:0.977" fill="#129873" d="M 405.5,368.5 C 441.32,389.171 476.986,410.004 512.5,431C 528.376,444.969 534.543,462.469 531,483.5C 524.91,510.177 508.41,526.01 481.5,531C 456.569,534.039 437.736,524.873 425,503.5C 406.392,470.606 387.558,437.939 368.5,405.5C 383.188,395.479 395.521,383.145 405.5,368.5 Z"/></g>
<g><path style="opacity:0.977" fill="#129873" d="M 242.5,595.5 C 236.5,595.5 230.5,595.5 224.5,595.5C 198.764,589.934 182.597,574.267 176,548.5C 174.163,535.852 176.163,523.852 182,512.5C 201.054,479.552 220.221,446.719 239.5,414C 248.549,417.505 257.882,420.505 267.5,423C 275.072,424.824 282.738,425.99 290.5,426.5C 290.667,466.168 290.5,505.835 290,545.5C 287.751,567.764 276.251,583.264 255.5,592C 251.152,593.583 246.818,594.749 242.5,595.5 Z"/></g>
<g><path style="opacity:0.979" fill="#129873" d="M 371.5,595.5 C 365.167,595.5 358.833,595.5 352.5,595.5C 326.515,590.348 311.015,574.681 306,548.5C 305.5,507.835 305.333,467.168 305.5,426.5C 322.786,425.126 339.286,420.793 355,413.5C 377.505,449.161 398.505,485.827 418,523.5C 424.183,555.3 412.683,578.133 383.5,592C 379.457,593.491 375.457,594.658 371.5,595.5 Z"/></g>
<g><path style="opacity:1" fill="#fbfdfc" d="M 117.5,459.5 C 133.308,460.126 138.475,467.793 133,482.5C 123.022,491.371 114.689,490.037 108,478.5C 107.333,475.167 107.333,471.833 108,468.5C 110.406,464.592 113.572,461.592 117.5,459.5 Z"/></g>
<g><path style="opacity:1" fill="#f9fcfb" d="M 469.5,459.5 C 485.006,459.547 490.506,466.881 486,481.5C 475.686,491.573 467.02,490.24 460,477.5C 459.037,469.302 462.204,463.302 469.5,459.5 Z"/></g>
<g><path style="opacity:1" fill="#fbfdfc" d="M 228.5,524.5 C 244.457,524.097 249.957,531.43 245,546.5C 238.483,553.294 231.317,554.127 223.5,549C 215.926,538.9 217.592,530.733 228.5,524.5 Z"/></g>
<g><path style="opacity:1" fill="#fbfdfc" d="M 356.5,524.5 C 373.142,523.497 378.976,530.83 374,546.5C 367.522,553.405 360.355,554.238 352.5,549C 348.716,544.139 347.549,538.639 349,532.5C 351.028,529.308 353.528,526.641 356.5,524.5 Z"/></g>
</svg>
